<?xml version="1.0" encoding="utf-8"?>
<!-- Generator: Adobe Illustrator 27.2.0, SVG Export Plug-In . SVG Version: 6.00 Build 0)  -->
<svg version="1.1" id="Layer_1" xmlns="http://www.w3.org/2000/svg" xmlns:xlink="http://www.w3.org/1999/xlink" x="0px" y="0px"
	 viewBox="0 0 513.3 77.5" style="enable-background:new 0 0 513.3 77.5;" xml:space="preserve">
<style type="text/css">
	.st0{fill:#FFFFFF;}
	.st1{fill-rule:evenodd;clip-rule:evenodd;fill:#0047BB;}
	.st2{fill-rule:evenodd;clip-rule:evenodd;fill:#FFFFFF;}
	.st3{fill-rule:evenodd;clip-rule:evenodd;}
</style>
<g>
	<g>
		<polygon points="38,0.9 38,14.7 26.3,14.7 26.3,75.5 11.6,75.5 11.6,14.7 0,14.7 0,0.9 		"/>
		<path d="M49.6,25.5v6h0.2c2.6-4.4,5.9-7.4,11.4-7.9v13.6C60.5,37.1,59.8,37,59,37c-9.3,0-9.4,6.1-9.4,13.6v24.9h-14v-50H49.6z"/>
		<path d="M80.8,25.5V53c0,2.8-1.1,10.5,3.6,10.5c3.8,0,3.5-4.9,3.5-7.4l0.1-30.5h13.9v31.9c0,11.6-5.4,19.1-17.8,19.1
			c-15.8,0-17.1-11.9-17.1-21v-30H80.8z"/>
		<path d="M202.4,14.9c-1.9-0.5-3.7-0.8-5.5-0.8c-13,0-18.6,11.8-18.6,23.3c0,11.1,5.6,24.8,18.5,24.8c1.9,0,3.8-0.5,5.6-1.1v14
			c-2.2,0.9-4.5,1.3-6.8,1.3c-21.3,0-33.1-19.2-33.1-38.8C162.5,19,174.8,0,194.9,0c2.6,0,5,0.5,7.5,1.4V14.9z"/>
		<path d="M242.8,50.6c0,12.8-4.1,25.9-19,25.9c-14.9,0-19-13.2-19-25.9c0-12.8,4.1-26,19-26C238.7,24.5,242.8,37.8,242.8,50.6
			 M218.7,50.6c0,2.9,0.2,13.5,5,13.5c4.8,0,5-10.6,5-13.5c0-2.9-0.2-13.5-5-13.5C218.9,37.1,218.7,47.7,218.7,50.6"/>
		<path d="M260.4,33.6h0.2c2.4-4.9,6.3-9,12.3-9c5.2,0,7.9,4,8.6,8.5h0.2c2.3-4.4,6.6-8.5,12-8.5c9,0,9,10,9,16.4v34.5h-14V48.4
			c0-2.6,0.7-9.9-3.5-9.9c-3.3,0-3.8,3.4-3.8,5.6v31.4h-14v-28c0-2.5,0.7-8.8-3.3-8.8c-3.5,0-4,3.2-4,5.7v3.1v28h-14v-50h14
			L260.4,33.6z"/>
		<path d="M321.2,33.6h0.2c2.4-4.9,6.3-9,12.3-9c5.2,0,7.9,4,8.6,8.5h0.2c2.3-4.4,6.6-8.5,12-8.5c9,0,9,10,9,16.4v34.5h-14V48.4
			c0-2.6,0.7-9.9-3.5-9.9c-3.3,0-3.8,3.4-3.8,5.6v31.4h-14v-28c0-2.5,0.7-8.8-3.3-8.8c-3.5,0-4,3.2-4,5.7v3.1v28h-14v-50h14
			L321.2,33.6z"/>
		<path d="M402.6,54.3h-22.1c0.1,3.7-0.1,11.6,5.2,11.6c3.6,0,4.4-2.8,4.4-5.7h11.9c-1.2,9.2-5.6,16.4-15.8,16.4
			c-14.2,0-19.2-12.6-19.2-24.9c0-12,4.4-27,18.9-27c9.2,0,17.7,8.2,16.9,24L402.6,54.3z M390.8,44.5c0-3.3-0.7-9.2-5-9.2
			c-4.3,0-5.2,5.7-5.2,8.9v1.5h10.2V44.5z"/>
		<path d="M420.4,25.5v6h0.2c2.6-4.4,5.9-7.4,11.4-7.9v13.6c-0.7-0.1-1.4-0.2-2.2-0.2c-9.3,0-9.4,6.1-9.4,13.6v24.9h-14v-50H420.4z"
			/>
		<path d="M460.6,74.7c-2.6,1.2-5.2,1.8-8,1.8c-13.6,0-18.3-14.3-18.3-25.6c0-12.6,4.9-26.3,19.4-26.3c2.5,0,4.7,0.5,6.9,1.5v12.3
			c-1.3-1.2-2.4-1.6-4.1-1.6c-6.8,0-8.3,8.2-8.3,13.4c0,5.4,1.1,13.4,8.1,13.4c1.6,0,3-0.6,4.3-1.5V74.7z"/>
		<path d="M498.5,54.3h-22.1c0.1,3.7-0.1,11.6,5.2,11.6c3.6,0,4.5-2.8,4.5-5.7H498c-1.2,9.2-5.6,16.4-15.8,16.4
			c-14.2,0-19.2-12.6-19.2-24.9c0-12,4.3-27,18.9-27c9.2,0,17.7,8.2,16.9,24L498.5,54.3z M486.7,44.5c0-3.3-0.7-9.2-5-9.2
			c-4.3,0-5.1,5.7-5.1,8.9v1.5h10.2V44.5z"/>
		<path class="st1" d="M128.5,59c30.2,2,45.1-24.8,14.8-33.1c-12.4-3.4-24.7-0.7-38,7.6c10.4-2.6,22.9-4.5,31.8-1.5
			C150.8,36.8,156.9,49.3,128.5,59L128.5,59z"/>
		<path class="st3" d="M159.3,62.7c-7.4,5.9-20.8,8.9-30,5.3c-9.7-3.8-13.3-16.2-8-25.1c1.8-3,4.9-5.8,10-8.4
			c-7.2,0.7-15.2,4.3-19,9.2c-9.3,12-4.8,27.9,10.6,32.6C134.6,79.8,153.5,75.9,159.3,62.7L159.3,62.7z"/>
	</g>
	<g>
		<path d="M505.1,27v0.9h-2.5v6.6h-1v-6.6H499V27H505.1z"/>
		<path d="M506,27h1.5l2.2,6.4l2.2-6.4h1.5v7.5h-1v-4.4c0-0.2,0-0.4,0-0.8c0-0.4,0-0.7,0-1.1l-2.2,6.4h-1l-2.2-6.4v0.2
			c0,0.2,0,0.5,0,0.8c0,0.4,0,0.7,0,0.8v4.4h-1V27z"/>
	</g>
</g>
</svg>
